<svg width="20" height="14" viewBox="0 0 20 14" fill="none" xmlns="http://www.w3.org/2000/svg">
<path d="M0.580791 7.10185C0.564505 7.06429 0.55009 7.03026 0.537501 7C0.55009 6.96974 0.564505 6.93571 0.580791 6.89815C0.658963 6.7179 0.779996 6.457 0.948552 6.14236C1.28618 5.51212 1.81151 4.67185 2.56047 3.83301C4.05374 2.16055 6.42685 0.5 10 0.5C13.5731 0.5 15.9463 2.16055 17.4395 3.83301C18.1885 4.67185 18.7138 5.51212 19.0514 6.14236C19.22 6.457 19.341 6.7179 19.4192 6.89815C19.4355 6.93571 19.4499 6.96974 19.4625 7C19.4499 7.03027 19.4355 7.06429 19.4192 7.10185C19.341 7.2821 19.22 7.543 19.0514 7.85764C18.7138 8.48788 18.1885 9.32815 17.4395 10.167C15.9463 11.8395 13.5731 13.5 10 13.5C6.42685 13.5 4.05374 11.8395 2.56047 10.167C1.81151 9.32815 1.28618 8.48788 0.948552 7.85764C0.779996 7.543 0.658963 7.2821 0.580791 7.10185Z" stroke="white"/>
<circle cx="10" cy="7" r="3.5" stroke="white"/>
</svg>
